<?xml version="1.0" encoding="UTF-8" standalone="no"?><svg xmlns:svg="http://www.w3.org/2000/svg" xmlns="http://www.w3.org/2000/svg" xmlns:xlink="http://www.w3.org/1999/xlink" version="1.0" width="256px" height="256px" viewBox="0 0 128 128" xml:space="preserve"><path d="M82.24 59.25h-3.96L88.48 128H39.5l10.3-68.75h-5.05v-6h2.05a17.24 17.24 0 0 1 34.4 0h2.04v6h-1zM64 43.5a10.92 10.92 0 0 0-10.9 9.75h21.8A10.92 10.92 0 0 0 64 43.5z" fill="#575757"/><path d="M57.5 50h12.75v13H57.5z" fill="#000000"/><g><path d="M61.75 45.75V56.5H66V45.75h1V1.5H54.5v44.25h7.25zM66 67.25V56.5h-4.24v10.75h-1v44.25h12.5V67.25H66zm8.63-12.87H63.88v4.23h10.74v1.04h44.25v-12.5H74.63v7.25zm-21.5 4.24h10.75V54.4H53.12v-1.03H8.88v12.5h44.24v-7.25z" fill="#000000"/><animateTransform attributeName="transform" type="rotate" from="0 64 56.5" to="90 64 56.5" dur="400ms" repeatCount="indefinite"></animateTransform></g><path d="M63.88 55.17a1.25 1.25 0 1 1-1.26 1.25 1.25 1.25 0 0 1 1.26-1.25z" fill="#ffffff"/></svg>